<mxfile host="app.diagrams.net" modified="2023-12-05T08:16:04.475Z" agent="Mozilla/5.0 (X11; Linux x86_64) AppleWebKit/537.36 (KHTML, like Gecko) Chrome/119.0.0.0 Safari/537.36" version="22.1.5" etag="meshm9OMvkSgjDRsEg1g" type="github">
  <diagram name="第 1 页" id="j2CG1f7PdYdNXPIuZFDq">
    <mxGraphModel>
      <root>
        <mxCell id="0" />
        <mxCell id="1" parent="0" />
      </root>
    </mxGraphModel>
  </diagram>
</mxfile>
